<?xml version="1.0" encoding="utf-8"?>
<!-- Generator: Adobe Illustrator 21.0.1, SVG Export Plug-In . SVG Version: 6.00 Build 0)  -->
<svg version="1.1" xmlns="http://www.w3.org/2000/svg" xmlns:xlink="http://www.w3.org/1999/xlink" x="0px" y="0px"
	 viewBox="0 0 36.9 20.5" style="enable-background:new 0 0 36.9 20.5;" xml:space="preserve">
<style type="text/css">
	.st0{fill:#F5F5F5;}
	.st1{fill:#44AED8;}
	.st2{fill:#828282;}
	.st3{fill:none;stroke:#44AED8;stroke-width:2;stroke-miterlimit:10;}
	.st4{fill:#FFFFFF;}
	.st5{fill:#2873A6;}
	.st6{fill:#FCFCFC;}
	.st7{fill:#698696;}
	.st8{fill:#272F33;}
	.st9{fill:#6B6B6B;}
	.st10{fill:none;stroke:#848484;stroke-miterlimit:10;}
	.st11{fill:#60CC6A;}
	.st12{fill:none;stroke:#60CC6A;stroke-width:2;stroke-miterlimit:10;}
	.st13{fill:#CC6262;}
	.st14{fill:none;stroke:#CC6262;stroke-width:2;stroke-miterlimit:10;}
	.st15{fill:none;stroke:#666666;stroke-width:2;stroke-miterlimit:10;}
	.st16{fill:#666666;}
</style>
<g id="Scene1">
</g>
<g id="Scene2">
	<path class="st13" d="M30.6,1.2H6.5c-1.8,0-3.2,1.5-3.2,3.2v9.9c0,1.8,1.5,3.2,3.2,3.2h24.1c1.8,0,3.2-1.5,3.2-3.2V4.5
		C33.9,2.7,32.4,1.2,30.6,1.2z M14.3,12h-0.9l-3-3.7V12H9.3V6.2h0.9l3,3.8V6.2h1.1V12z M19.5,12h-4V6.2h3.9v1h-2.8v1.4h2.4v0.9h-2.4
		V11h2.9V12z M26,12h-0.9l-1-2.4l-1,2.4h-0.9l-2.3-5.8H21l1.6,4.5l0.7-1.8l-1-2.6h1l0.6,1.9l0.6-1.9h1l-1,2.6l0.7,1.8l1.6-4.5h1.2
		L26,12z"/>
</g>
</svg>
